<?xml version="1.0" encoding="UTF-8"?>
<svg width="45px" height="33px" viewBox="0 0 45 33" version="1.1" xmlns="http://www.w3.org/2000/svg" xmlns:xlink="http://www.w3.org/1999/xlink">
    <title>Combined Shape</title>
    <g id="Page-1" stroke="none" stroke-width="1" fill="none" fill-rule="evenodd">
        <g id="Mobile" transform="translate(-359.000000, -16.000000)" fill="#2A2C27" fill-rule="nonzero">
            <path d="M402.125,44.7498474 C403.160004,44.7498474 404,45.5898438 404,46.6248474 C404,47.659851 403.160004,48.4998474 402.125,48.4998474 L360.875,48.4998474 C359.839996,48.4998474 359,47.659851 359,46.6248474 C359,45.5898438 359.839996,44.7498474 360.875,44.7498474 L402.125,44.7498474 Z M402.125,30.3751526 C403.160004,30.3751526 404,31.215149 404,32.2501526 C404,33.2851562 403.160004,34.1251526 402.125,34.1251526 L360.875,34.1251526 C359.839996,34.1251526 359,33.2851562 359,32.2501526 C359,31.215149 359.839996,30.3751526 360.875,30.3751526 L402.125,30.3751526 Z M402.125,16 C403.160004,16 404,16.8399964 404,17.875 C404,18.9100036 403.160004,19.75 402.125,19.75 L360.875,19.75 C359.839996,19.75 359,18.9100036 359,17.875 C359,16.8399964 359.839996,16 360.875,16 L402.125,16 Z" id="Combined-Shape"></path>
        </g>
    </g>
</svg>