<?xml version="1.0" encoding="UTF-8"?>
<svg width="25px" height="25px" viewBox="0 0 25 25" version="1.1" xmlns="http://www.w3.org/2000/svg" xmlns:xlink="http://www.w3.org/1999/xlink">
    <title>Combined Shape</title>
    <g id="Page-1" stroke="none" stroke-width="1" fill="none" fill-rule="evenodd">
        <g id="Desktop" transform="translate(-1570.000000, -6781.000000)" fill="#FFFFFF" fill-rule="nonzero">
            <path d="M1588.79063,6788.88995 C1594.03438,6788.88995 1595,6792.34516 1595,6796.83057 L1595,6796.83057 L1595,6805.99932 L1594.99375,6805.99932 L1594.99375,6806.00036 L1589.82188,6806.00036 L1589.82112,6797.55599 C1589.80995,6795.67665 1589.63877,6793.45453 1587.12708,6793.45453 C1584.43229,6793.45453 1584.01979,6795.5587 1584.01979,6797.73474 L1584.01979,6797.73474 L1584.01979,6805.99932 L1578.84271,6805.99932 L1578.84271,6789.3087 L1583.81458,6789.3087 L1583.81458,6791.58474 L1583.8875,6791.58474 C1584.57813,6790.27328 1586.26979,6788.88995 1588.79063,6788.88995 Z M1575.59583,6789.30974 L1575.59583,6806.00036 L1570.4125,6806.00036 L1570.4125,6789.30974 L1575.59583,6789.30974 Z M1573.00208,6781.00036 C1574.65833,6781.00036 1576.00312,6782.34516 1576.00417,6784.00245 C1576.00417,6785.65974 1574.65937,6787.03266 1573.00208,6787.03266 C1571.34479,6787.03266 1570,6785.65974 1570,6784.00245 C1570,6782.34516 1571.34479,6781.00036 1573.00208,6781.00036 Z" id="Combined-Shape"></path>
        </g>
    </g>
</svg>