<?xml version="1.0" encoding="UTF-8"?>
<svg width="20px" height="25px" viewBox="0 0 20 25" version="1.1" xmlns="http://www.w3.org/2000/svg" xmlns:xlink="http://www.w3.org/1999/xlink">
    <title>Combined Shape</title>
    <g id="Page-1" stroke="none" stroke-width="1" fill="none" fill-rule="evenodd">
        <g id="Desktop" transform="translate(-1629.000000, -6781.000000)" fill="#FFFFFF" fill-rule="nonzero">
            <path d="M1637.24616,6798.29731 C1637.62547,6797.82759 1638.2994,6797.66837 1638.91666,6797.90676 C1639.52475,6798.14101 1639.89448,6798.67744 1639.85819,6799.27224 C1639.85649,6799.34165 1639.85039,6800.39967 1639.84817,6800.79399 L1639.84735,6800.94064 C1639.8369,6804.90721 1639.83191,6804.92259 1639.74356,6805.17476 L1639.74236,6805.17796 C1639.58722,6805.59989 1639.22339,6805.89079 1638.74366,6805.97958 C1638.66278,6805.99331 1638.5711,6806 1638.47025,6806 C1637.18282,6806 1634.39911,6804.93553 1633.73266,6804.13946 C1633.54676,6803.91439 1633.44131,6803.67306 1633.41714,6803.41967 C1633.39672,6803.25126 1633.41963,6803.06371 1633.48508,6802.88783 L1633.48508,6802.88783 L1633.49712,6802.85355 C1633.52531,6802.77544 1633.55871,6802.70488 1633.69226,6802.52635 L1633.7559,6802.4429 C1634.06064,6802.04969 1634.75755,6801.2272 1636.45468,6799.23551 L1636.45468,6799.23551 L1636.46469,6799.22384 C1636.53678,6799.14086 1637.24572,6798.29731 1637.24616,6798.29731 Z M1641.39481,6797.11645 C1641.80367,6796.61216 1642.42719,6796.42333 1642.98194,6796.63882 L1642.98194,6796.63882 C1643.01105,6796.64931 1643.08268,6796.67356 1643.18207,6796.70686 L1643.41248,6796.78379 C1643.88306,6796.94051 1644.56447,6797.16568 1644.56447,6797.16568 C1645.66832,6797.52798 1646.44981,6797.78474 1647.00847,6797.97074 L1647.26969,6798.058 C1647.95981,6798.28944 1648.23602,6798.39051 1648.3813,6798.46006 L1648.4276,6798.48347 C1648.46242,6798.50215 1648.48879,6798.51911 1648.51392,6798.53687 L1648.54394,6798.55872 L1648.54394,6798.55872 L1648.55937,6798.57024 C1648.92031,6798.85821 1649.08159,6799.29627 1649.01242,6799.77927 C1648.85364,6800.89248 1646.76051,6803.55408 1645.7169,6803.97046 C1645.54058,6804.04216 1645.36304,6804.07718 1645.19048,6804.07718 C1644.92121,6804.07718 1644.66489,6803.99132 1644.44901,6803.82252 L1644.44901,6803.82252 L1644.42105,6803.80054 C1644.40286,6803.78599 1644.38527,6803.77116 1644.36641,6803.75314 L1644.33694,6803.72334 C1644.15164,6803.52577 1643.78846,6802.95083 1641.89076,6799.86846 L1641.89076,6799.86846 L1641.25434,6798.83193 C1640.92051,6798.32305 1640.97428,6797.62954 1641.39481,6797.11645 Z M1631.52495,6792.14066 C1631.54942,6792.14097 1631.57182,6792.14124 1631.59539,6792.14277 L1631.63204,6792.14615 C1631.87488,6792.17551 1632.37101,6792.37489 1635.9158,6793.837 L1635.9158,6793.837 L1637.04611,6794.29753 C1637.6117,6794.50882 1637.97469,6795.10069 1637.93845,6795.76587 C1637.9026,6796.41898 1637.5104,6796.93583 1636.93817,6797.0846 C1636.82852,6797.12085 1636.49092,6797.22879 1635.34264,6797.59515 C1631.94626,6798.68716 1631.59201,6798.79926 1631.35444,6798.79926 C1631.32733,6798.79926 1631.30149,6798.7976 1631.27272,6798.79593 C1630.83388,6798.78133 1630.43332,6798.5171 1630.20953,6798.08904 C1630.07619,6797.83731 1629.98241,6797.45883 1629.92488,6796.93578 C1629.80155,6795.73959 1629.90241,6793.56895 1630.40671,6792.76457 C1630.40714,6792.76374 1630.40758,6792.76291 1630.40798,6792.76208 C1630.67055,6792.3499 1631.08151,6792.11775 1631.52495,6792.14066 Z M1644.63471,6788.2942 C1645.00356,6788.04623 1645.47162,6788.02332 1645.91256,6788.23378 C1646.9045,6788.71893 1648.76338,6791.46136 1648.88465,6792.61545 C1648.88631,6792.63338 1648.88754,6792.66425 1648.88714,6792.68881 L1648.88705,6792.84569 C1648.86562,6793.25704 1648.67616,6793.60931 1648.35198,6793.82791 C1648.28799,6793.86939 1648.23928,6793.90095 1648.11525,6793.946 L1648.04655,6793.96976 C1647.66742,6794.09524 1646.72319,6794.32937 1643.79819,6795.03783 C1643.79736,6795.03827 1643.79697,6795.03827 1643.79653,6795.03827 L1643.60268,6795.08434 C1643.10781,6795.20237 1642.78846,6795.28265 1642.62617,6795.34417 C1642.57782,6795.36253 1642.5278,6795.37127 1642.47823,6795.37127 C1642.44951,6795.37127 1642.42074,6795.36878 1642.3928,6795.36253 C1641.87474,6795.4142 1641.34749,6795.14704 1641.02825,6794.65891 C1640.67356,6794.11378 1640.68812,6793.46443 1641.06532,6793.00429 C1641.08503,6792.97802 1641.27728,6792.71683 1641.48732,6792.4313 L1641.66811,6792.1855 C1641.8757,6791.90325 1642.05687,6791.65683 1642.05687,6791.65683 C1644.40798,6788.44131 1644.40798,6788.44131 1644.63471,6788.2942 Z M1632.21909,6782.78783 C1633.06059,6781.92138 1637.22135,6780.75395 1638.4067,6781.04569 C1638.89561,6781.16906 1639.2461,6781.49752 1639.36948,6781.94721 C1639.44826,6782.38733 1639.93795,6789.79653 1640.00013,6791.2298 C1640.05556,6792.36763 1639.71337,6793.05616 1638.98358,6793.27624 C1638.8456,6793.32083 1638.70933,6793.34335 1638.57428,6793.34335 C1638.0062,6793.34335 1637.47103,6792.94572 1636.98339,6792.15385 C1636.49242,6791.382 1635.52904,6789.86611 1634.57088,6788.35377 L1634.26904,6787.87717 C1633.06681,6785.97824 1631.95314,6784.21051 1631.89068,6784.08069 C1631.87983,6784.05734 1631.8707,6784.0336 1631.86401,6784.00859 C1631.7527,6783.59349 1631.88525,6783.13666 1632.21909,6782.78783 Z" id="Combined-Shape"></path>
        </g>
    </g>
</svg>