<?xml version="1.0" encoding="UTF-8"?>
<svg width="19px" height="19px" viewBox="0 0 19 19" version="1.1" xmlns="http://www.w3.org/2000/svg" xmlns:xlink="http://www.w3.org/1999/xlink">
    <title>Path</title>
    <g id="Page-1" stroke="none" stroke-width="1" fill="none" fill-rule="evenodd">
        <g id="Mobile" transform="translate(-251.000000, -5838.000000)" fill="#00A871" fill-rule="nonzero">
            <g id="Group-7" transform="translate(0.000000, 5815.000000)">
                <g id="Group-Copy" transform="translate(227.000000, 8.000000)">
                    <path d="M42.5017686,28.9440685 L39.844683,26.2925648 C38.8957238,25.3455992 37.2824932,25.7244224 36.9029096,26.9554407 C36.6182218,27.8077468 35.6692627,28.2812296 34.8151994,28.0917994 C32.9172811,27.6183166 30.3550914,25.1562061 29.8806118,23.1675783 C29.595924,22.3152723 30.1652995,21.3683067 31.0193628,21.084254 C32.2530097,20.7054678 32.6325933,19.0956262 31.6836342,18.1486606 L29.0265485,15.4971569 C28.2673812,14.834281 27.1286302,14.834281 26.4643588,15.4971569 L24.6613364,17.2963916 C22.858314,19.1903228 24.8511282,24.2092405 29.3112363,28.6599788 C33.7713443,33.1107171 38.8008279,35.1940785 40.6987462,33.3001103 L42.5017686,31.5008756 C43.1660771,30.7433031 43.1660771,29.6069444 42.5017686,28.9440685 Z" id="Path"></path>
                </g>
            </g>
        </g>
    </g>
</svg>